<svg width="900" height="380" viewBox="0 0 900 380" xmlns="http://www.w3.org/2000/svg" role="img">
  <title>Tic Tac Toe game banner</title>
  <desc>A cartoon illustration of a tic-tac-toe board with playful X and O characters, confetti, and a trophy, representing an HTML, CSS and JavaScript game project.</desc>

  <defs>
    <linearGradient id="bg" x1="0" y1="0" x2="1" y2="1">
      <stop offset="0%" stop-color="#fdf2ff"/>
      <stop offset="100%" stop-color="#f3e7f9"/>
    </linearGradient>
    <linearGradient id="cupGold" x1="0" y1="0" x2="0" y2="1">
      <stop offset="0%" stop-color="#ffe27a"/>
      <stop offset="100%" stop-color="#ffc93c"/>
    </linearGradient>
  </defs>

  <rect x="0" y="0" width="900" height="380" rx="28" fill="url(#bg)"/>

  <circle cx="60" cy="55" r="7" fill="#ff6b9d"/>
  <circle cx="845" cy="70" r="9" fill="#06d6a0"/>
  <circle cx="820" cy="300" r="6" fill="#ffd166"/>
  <circle cx="45" cy="300" r="8" fill="#911d91"/>
  <rect x="780" y="190" width="12" height="12" rx="3" fill="#ff6b9d" transform="rotate(20 786 196)"/>
  <rect x="70" y="180" width="12" height="12" rx="3" fill="#06d6a0" transform="rotate(-15 76 186)"/>
  <rect x="90" y="80" width="10" height="10" rx="2" fill="#ffd166" transform="rotate(35 95 85)"/>
  <rect x="800" y="120" width="10" height="10" rx="2" fill="#911d91" transform="rotate(-25 805 125)"/>
  <path d="M30 230 l8 -4 l8 4 l-8 4 z" fill="#ffd166"/>
  <path d="M860 250 l8 -4 l8 4 l-8 4 z" fill="#ff6b9d"/>

  <text x="450" y="58" text-anchor="middle" font-family="'Poppins', Arial, sans-serif" font-size="34" font-weight="700" fill="#2b1338">Tic-Tac-Toe</text>
  <text x="450" y="84" text-anchor="middle" font-family="'Poppins', Arial, sans-serif" font-size="14" font-weight="400" fill="#7a5c8a">HTML &#183; CSS &#183; JavaScript</text>

  <g transform="translate(330,108)">
    <rect x="0" y="0" width="240" height="240" rx="18" fill="#ffffff"/>
    <line x1="80" y1="14" x2="80" y2="226" stroke="#2b1338" stroke-width="4" stroke-linecap="round"/>
    <line x1="160" y1="14" x2="160" y2="226" stroke="#2b1338" stroke-width="4" stroke-linecap="round"/>
    <line x1="14" y1="80" x2="226" y2="80" stroke="#2b1338" stroke-width="4" stroke-linecap="round"/>
    <line x1="14" y1="160" x2="226" y2="160" stroke="#2b1338" stroke-width="4" stroke-linecap="round"/>

    <g transform="translate(40,40)">
      <line x1="-20" y1="-20" x2="20" y2="20" stroke="#911d91" stroke-width="11" stroke-linecap="round"/>
      <line x1="20" y1="-20" x2="-20" y2="20" stroke="#911d91" stroke-width="11" stroke-linecap="round"/>
      <circle cx="-7" cy="-13" r="3.2" fill="#2b1338"/>
      <circle cx="7" cy="-13" r="3.2" fill="#2b1338"/>
      <path d="M-7 9 Q0 15 7 9" stroke="#2b1338" stroke-width="2.4" fill="none" stroke-linecap="round"/>
    </g>

    <g transform="translate(120,120)">
      <circle cx="0" cy="0" r="26" fill="none" stroke="#06d6a0" stroke-width="11"/>
      <circle cx="-9" cy="-6" r="3" fill="#13443a"/>
      <circle cx="9" cy="-6" r="3" fill="#13443a"/>
      <path d="M-8 9 Q0 15 8 9" stroke="#13443a" stroke-width="2.2" fill="none" stroke-linecap="round"/>
    </g>

    <g transform="translate(200,200)">
      <line x1="-18" y1="-18" x2="18" y2="18" stroke="#ff6b9d" stroke-width="11" stroke-linecap="round"/>
      <line x1="18" y1="-18" x2="-18" y2="18" stroke="#ff6b9d" stroke-width="11" stroke-linecap="round"/>
      <circle cx="-6" cy="-12" r="3" fill="#6b1339"/>
      <circle cx="6" cy="-12" r="3" fill="#6b1339"/>
      <path d="M-6 8 Q0 13 6 8" stroke="#6b1339" stroke-width="2.2" fill="none" stroke-linecap="round"/>
    </g>
  </g>

  <g transform="translate(135,205)">
    <path d="M-30 0 h60 l-6 46 a24 24 0 0 1 -48 0 z" fill="url(#cupGold)" stroke="#c9941f" stroke-width="2"/>
    <path d="M-30 6 c-22 0 -22 34 0 30" fill="none" stroke="#c9941f" stroke-width="5" stroke-linecap="round"/>
    <path d="M30 6 c22 0 22 34 0 30" fill="none" stroke="#c9941f" stroke-width="5" stroke-linecap="round"/>
    <rect x="-14" y="46" width="28" height="12" fill="#c9941f"/>
    <rect x="-24" y="58" width="48" height="10" rx="3" fill="#c9941f"/>
    <circle cx="0" cy="20" r="10" fill="#fff4cf"/>
    <text x="0" y="24" text-anchor="middle" font-family="'Poppins', Arial, sans-serif" font-size="12" font-weight="700" fill="#c9941f">1</text>
  </g>

  <g transform="translate(700,225) rotate(-6)">
    <rect x="-46" y="-30" width="92" height="62" rx="10" fill="#ffffff" stroke="#2b1338" stroke-width="3"/>
    <path d="M-14 32 l-10 18 l22 -10 z" fill="#ffffff" stroke="#2b1338" stroke-width="3"/>
    <text x="0" y="9" text-anchor="middle" font-family="'Poppins', Arial, sans-serif" font-size="26" font-weight="700" fill="#911d91">X</text>
  </g>

  <text x="450" y="345" text-anchor="middle" font-family="'Poppins', Arial, sans-serif" font-size="13" font-weight="400" fill="#9b80a8">A clean, browser-based two-player game</text>
</svg>
